<svg width="200" height="34" viewBox="0 0 200 34" fill="none" xmlns="http://www.w3.org/2000/svg">
<path d="M17.36 13.36C17.36 13.68 17.2133 13.9067 16.92 14.04L3.68 19.52L16.92 24.92C17.2133 25.0533 17.36 25.28 17.36 25.6V27.36C17.36 27.5467 17.28 27.6933 17.12 27.8C16.9867 27.88 16.8267 27.88 16.64 27.8L1 21.32C0.733334 21.2133 0.6 20.9867 0.6 20.64L0.64 18.24C0.64 17.9467 0.786667 17.7333 1.08 17.6L16.64 11.2C16.6933 11.1733 16.7733 11.16 16.88 11.16C17.0133 11.16 17.12 11.2133 17.2 11.32C17.3067 11.4 17.36 11.5067 17.36 11.64V13.36ZM24.1131 31C23.9531 31 23.8198 30.9467 23.7131 30.84C23.6065 30.7333 23.5531 30.6 23.5531 30.44V4.64C23.5531 4.24 23.6865 3.90667 23.9531 3.64C24.2465 3.34667 24.5931 3.2 24.9931 3.2H31.9531C33.4465 3.2 34.8065 3.56 36.0331 4.28C37.2865 5 38.2731 5.98667 38.9931 7.24C39.7131 8.46667 40.0731 9.81333 40.0731 11.28C40.0731 13.2267 39.4598 14.9333 38.2331 16.4C37.0065 17.8667 35.4598 18.7867 33.5931 19.16L40.2331 29.88C40.3131 29.9867 40.3531 30.12 40.3531 30.28C40.3531 30.4933 40.2731 30.6667 40.1131 30.8C39.9798 30.9333 39.8065 31 39.5931 31H37.5531C37.2865 31 37.0865 30.88 36.9531 30.64L29.9531 19.32H26.8331V30.44C26.8331 30.6 26.7798 30.7333 26.6731 30.84C26.5665 30.9467 26.4331 31 26.2731 31H24.1131ZM31.7131 16.24C33.1531 16.24 34.3398 15.7733 35.2731 14.84C36.2331 13.9067 36.7131 12.7333 36.7131 11.32C36.7131 9.85333 36.2331 8.65333 35.2731 7.72C34.3398 6.76 33.1531 6.28 31.7131 6.28H26.8331V16.24H31.7131ZM53.3034 31.52C51.7301 31.52 50.2768 31.1333 48.9434 30.36C47.6101 29.5867 46.5568 28.5333 45.7834 27.2C45.0101 25.84 44.6234 24.3733 44.6234 22.8V16.56C44.6234 14.9867 45.0101 13.5333 45.7834 12.2C46.5568 10.84 47.6101 9.77333 48.9434 9C50.2768 8.22667 51.7301 7.84 53.3034 7.84C54.8768 7.84 56.3301 8.22667 57.6634 9C58.9968 9.77333 60.0501 10.84 60.8234 12.2C61.5968 13.5333 61.9834 14.9867 61.9834 16.56V22.8C61.9834 24.3733 61.5968 25.84 60.8234 27.2C60.0501 28.5333 58.9968 29.5867 57.6634 30.36C56.3301 31.1333 54.8768 31.52 53.3034 31.52ZM53.3034 28.56C54.3168 28.56 55.2501 28.32 56.1034 27.84C56.9568 27.3333 57.6234 26.6533 58.1034 25.8C58.6101 24.9467 58.8634 24.0133 58.8634 23V16.36C58.8634 15.3467 58.6101 14.4133 58.1034 13.56C57.6234 12.7067 56.9568 12.04 56.1034 11.56C55.2501 11.0533 54.3168 10.8 53.3034 10.8C52.2901 10.8 51.3568 11.0533 50.5034 11.56C49.6501 12.04 48.9701 12.7067 48.4634 13.56C47.9834 14.4133 47.7434 15.3467 47.7434 16.36V23C47.7434 24.0133 47.9834 24.9467 48.4634 25.8C48.9701 26.6533 49.6501 27.3333 50.5034 27.84C51.3568 28.32 52.2901 28.56 53.3034 28.56ZM77.2416 31.52C76.0682 31.52 74.9482 31.2933 73.8816 30.84C72.8416 30.36 71.9349 29.7067 71.1616 28.88V30.44C71.1616 30.6 71.1082 30.7333 71.0016 30.84C70.8949 30.9467 70.7616 31 70.6016 31H68.7616C68.6016 31 68.4682 30.9467 68.3616 30.84C68.2549 30.7333 68.2016 30.6 68.2016 30.44V1.2C68.2016 1.04 68.2549 0.906665 68.3616 0.799998C68.4682 0.693331 68.6016 0.639997 68.7616 0.639997H70.7616C70.9216 0.639997 71.0549 0.693331 71.1616 0.799998C71.2682 0.906665 71.3216 1.04 71.3216 1.2V10.64C72.0682 9.76 72.9482 9.08 73.9616 8.6C75.0016 8.09333 76.0949 7.84 77.2416 7.84C78.7616 7.84 80.1616 8.21333 81.4416 8.96C82.7216 9.70667 83.7349 10.72 84.4816 12C85.2282 13.28 85.6016 14.68 85.6016 16.2V23.16C85.6016 24.68 85.2282 26.08 84.4816 27.36C83.7349 28.64 82.7216 29.6533 81.4416 30.4C80.1616 31.1467 78.7616 31.52 77.2416 31.52ZM76.9216 28.56C77.9349 28.56 78.8682 28.32 79.7216 27.84C80.5749 27.3333 81.2416 26.6533 81.7216 25.8C82.2282 24.9467 82.4816 24.0133 82.4816 23V16.36C82.4816 15.3467 82.2282 14.4133 81.7216 13.56C81.2416 12.7067 80.5749 12.04 79.7216 11.56C78.8682 11.0533 77.9349 10.8 76.9216 10.8C75.9082 10.8 74.9616 11.0533 74.0816 11.56C73.2282 12.04 72.5482 12.7067 72.0416 13.56C71.5616 14.4133 71.3216 15.3467 71.3216 16.36V23C71.3216 24.0133 71.5616 24.9467 72.0416 25.8C72.5482 26.6533 73.2282 27.3333 74.0816 27.84C74.9616 28.32 75.9082 28.56 76.9216 28.56ZM97.04 31.4C95.8133 31.4 94.6133 31.24 93.44 30.92C92.2667 30.6 91.2533 30.1333 90.4 29.52C90.2933 29.4667 90.2133 29.3867 90.16 29.28C90.1333 29.1467 90.1467 29.0133 90.2 28.88L91.04 27.2C91.1733 26.9867 91.3467 26.88 91.56 26.88C91.6133 26.88 91.72 26.9067 91.88 26.96C93.64 28.0267 95.4133 28.56 97.2 28.56C98.6133 28.56 99.72 28.2533 100.52 27.64C101.347 27 101.76 26.1067 101.76 24.96C101.76 24.2667 101.573 23.7067 101.2 23.28C100.853 22.8267 100.387 22.4667 99.8 22.2C99.2133 21.9067 98.2933 21.52 97.04 21.04C95.4133 20.4267 94.1333 19.8533 93.2 19.32C92.2667 18.7867 91.5333 18.1067 91 17.28C90.4667 16.4533 90.2 15.4 90.2 14.12C90.2 12.0667 90.88 10.5067 92.24 9.44C93.6 8.37333 95.3467 7.84 97.48 7.84C98.6 7.84 99.7067 8 100.8 8.32C101.92 8.64 102.92 9.09333 103.8 9.68C103.907 9.73333 103.973 9.82667 104 9.96C104.027 10.0933 104.013 10.2133 103.96 10.32L103.16 11.96C103.107 12.12 103 12.2267 102.84 12.28C102.707 12.3333 102.56 12.3067 102.4 12.2C100.693 11.1867 99.0533 10.68 97.48 10.68C96.1733 10.68 95.1467 10.96 94.4 11.52C93.68 12.08 93.32 12.8933 93.32 13.96C93.32 14.7867 93.52 15.4533 93.92 15.96C94.32 16.4667 94.8 16.8533 95.36 17.12C95.92 17.36 96.8133 17.7067 98.04 18.16C99.6133 18.72 100.853 19.24 101.76 19.72C102.667 20.2 103.413 20.84 104 21.64C104.587 22.44 104.88 23.48 104.88 24.76C104.88 26.8133 104.16 28.44 102.72 29.64C101.307 30.8133 99.4133 31.4 97.04 31.4ZM118.264 31.52C116.691 31.52 115.238 31.1333 113.904 30.36C112.571 29.5867 111.518 28.5333 110.744 27.2C109.971 25.84 109.584 24.3733 109.584 22.8V16.56C109.584 14.9867 109.971 13.5333 110.744 12.2C111.518 10.84 112.571 9.77333 113.904 9C115.238 8.22667 116.691 7.84 118.264 7.84C119.838 7.84 121.291 8.22667 122.624 9C123.958 9.77333 125.011 10.84 125.784 12.2C126.558 13.5333 126.944 14.9867 126.944 16.56V22.8C126.944 24.3733 126.558 25.84 125.784 27.2C125.011 28.5333 123.958 29.5867 122.624 30.36C121.291 31.1333 119.838 31.52 118.264 31.52ZM118.264 28.56C119.278 28.56 120.211 28.32 121.064 27.84C121.918 27.3333 122.584 26.6533 123.064 25.8C123.571 24.9467 123.824 24.0133 123.824 23V16.36C123.824 15.3467 123.571 14.4133 123.064 13.56C122.584 12.7067 121.918 12.04 121.064 11.56C120.211 11.0533 119.278 10.8 118.264 10.8C117.251 10.8 116.318 11.0533 115.464 11.56C114.611 12.04 113.931 12.7067 113.424 13.56C112.944 14.4133 112.704 15.3467 112.704 16.36V23C112.704 24.0133 112.944 24.9467 113.424 25.8C113.931 26.6533 114.611 27.3333 115.464 27.84C116.318 28.32 117.251 28.56 118.264 28.56ZM133.723 30.96C133.563 30.96 133.429 30.9067 133.323 30.8C133.216 30.6933 133.163 30.56 133.163 30.4V8.92C133.163 8.76 133.216 8.62667 133.323 8.52C133.429 8.41333 133.563 8.36 133.723 8.36H135.723C135.883 8.36 136.016 8.41333 136.123 8.52C136.229 8.62667 136.283 8.76 136.283 8.92V11.12C136.976 10.0267 137.869 9.2 138.963 8.64C140.083 8.08 141.336 7.8 142.723 7.8C144.989 7.8 146.816 8.49333 148.203 9.88C149.616 11.2667 150.323 13.0933 150.323 15.36V30.4C150.323 30.56 150.269 30.6933 150.163 30.8C150.056 30.9067 149.923 30.96 149.762 30.96H147.763C147.603 30.96 147.469 30.9067 147.363 30.8C147.256 30.6933 147.203 30.56 147.203 30.4V15.96C147.203 14.2533 146.749 12.96 145.843 12.08C144.963 11.1733 143.763 10.72 142.243 10.72C140.456 10.72 139.016 11.3067 137.923 12.48C136.829 13.6533 136.283 15.2667 136.283 17.32V30.4C136.283 30.56 136.229 30.6933 136.123 30.8C136.016 30.9067 135.883 30.96 135.723 30.96H133.723ZM164.614 33.2C164.507 33.2 164.414 33.16 164.334 33.08C164.28 33 164.28 32.8933 164.334 32.76L177.294 1.12C177.427 0.799998 177.667 0.639997 178.014 0.639997H179.774C179.88 0.639997 179.96 0.679998 180.014 0.759998C180.094 0.839999 180.107 0.946666 180.054 1.08L167.134 32.72C167.027 33.04 166.787 33.2 166.414 33.2H164.614ZM199.665 20.64C199.665 20.9867 199.531 21.2133 199.265 21.32L183.625 27.8C183.571 27.8267 183.491 27.84 183.385 27.84C183.251 27.84 183.131 27.8 183.025 27.72C182.945 27.6133 182.905 27.4933 182.905 27.36V25.6C182.905 25.28 183.051 25.0533 183.345 24.92L196.585 19.52L183.345 14.04C183.051 13.9067 182.905 13.68 182.905 13.36V11.64C182.905 11.4533 182.971 11.32 183.105 11.24C183.265 11.1333 183.438 11.12 183.625 11.2L199.185 17.6C199.478 17.7333 199.625 17.9467 199.625 18.24L199.665 20.64Z" fill="#6FA347"/>
</svg>
